<svg width="343" height="319" viewBox="0 0 343 319" fill="none" xmlns="http://www.w3.org/2000/svg">
<g clip-path="url(#clip0_23_141)">
<path d="M53.9816 92.6588C47.1292 92.6588 40.6829 91.5926 34.6426 89.4855C28.6024 87.3785 23.2727 84.3068 18.6791 80.3212C14.0855 76.3102 10.4816 71.4615 7.86755 65.7496C5.2535 60.0378 3.93378 53.5898 3.93378 46.4055C3.93378 39.2213 5.20274 32.8241 7.71528 27.1376C10.2278 21.4511 13.7302 16.577 18.2223 12.5153C22.7144 8.45353 27.9171 5.35644 33.8305 3.22402C39.7438 1.0916 46.114 0.0253906 52.9157 0.0253906C56.0373 0.0253906 59.3112 0.27925 62.7628 0.761584C66.189 1.24392 69.6913 2.10704 73.219 3.32557C76.7721 4.54409 80.2491 6.29572 83.6753 8.52969L74.9194 24.8275C71.8739 22.8728 68.6508 21.4258 65.2246 20.4865C61.7984 19.5472 58.1691 19.0649 54.3115 19.0649C49.8701 19.0649 45.8856 19.6995 42.3325 20.9434C38.7794 22.1873 35.7593 24.0151 33.2975 26.4014C30.8104 28.7877 28.9323 31.6817 27.6126 35.058C26.2929 38.4344 25.6584 42.2676 25.6584 46.5579C25.6584 52.7013 26.9781 57.8292 29.5922 61.9417C32.2062 66.0543 35.7593 69.1768 40.2514 71.2584C44.7435 73.34 49.7433 74.4063 55.2759 74.4063C57.4839 74.4063 59.565 74.2286 61.57 73.8478C63.5495 73.467 65.3261 73.01 66.8488 72.5023V56.763H48.7027V40.0083H85.2995V85.3222C82.6347 86.8454 79.4623 88.1655 75.8077 89.2824C72.1531 90.3994 68.397 91.2372 64.5647 91.821C60.7325 92.4049 57.2047 92.6842 54.007 92.6842L53.9816 92.6588Z" fill="#0C2340"></path>
<path d="M121.236 92.6587C116.973 92.6587 113.115 91.8209 109.689 90.1454C106.263 88.47 103.547 86.0837 101.542 82.9612C99.5373 79.8388 98.5221 76.107 98.5221 71.766C98.5221 68.0343 99.4611 64.7341 101.314 61.8655C103.166 58.9969 105.958 56.6106 109.689 54.7574C113.42 52.9042 118.089 51.635 123.749 50.9749C129.409 50.3149 136.007 50.3403 143.57 51.0003L143.748 63.9471C139.738 63.2363 136.109 62.8555 132.86 62.8302C129.612 62.8302 126.871 63.084 124.612 63.6425C122.353 64.2264 120.602 65.0895 119.384 66.2826C118.166 67.4758 117.531 68.9228 117.531 70.6744C117.531 72.9084 118.394 74.6346 120.094 75.8024C121.82 76.9955 124.104 77.5794 126.972 77.5794C129.459 77.5794 131.718 77.1225 133.723 76.234C135.728 75.3454 137.327 74.0508 138.52 72.3245C139.713 70.5983 140.296 68.5166 140.296 66.0034V51.2795C140.296 48.9187 139.814 46.837 138.875 45.06C137.911 43.283 136.388 41.8867 134.307 40.8967C132.226 39.9066 129.434 39.3989 125.957 39.3989C122.48 39.3989 119.232 39.9066 115.958 40.9221C112.684 41.9375 109.74 43.4099 107.1 45.3646L101.771 31.0977C105.958 28.483 110.45 26.5282 115.222 25.2843C119.993 24.0404 124.688 23.4058 129.307 23.4058C135.398 23.4058 140.753 24.3704 145.397 26.3251C150.042 28.2799 153.646 31.2754 156.285 35.3372C158.899 39.3989 160.219 44.603 160.219 50.9495V90.6786H142.2V83.8243C140.119 86.6168 137.276 88.7746 133.622 90.2978C129.992 91.8209 125.83 92.5825 121.186 92.5825L121.236 92.6587Z" fill="#0C2340"></path>
<path d="M22.8413 192.299L0 127.564H22.3337L36.0892 174.325H33.8051L47.2561 127.564H69.0822L47.0784 192.299H22.8413Z" fill="#0C2340"></path>
<path d="M109.638 194.202C102.583 194.202 96.3395 192.654 90.9083 189.531C85.5025 186.409 81.2642 182.271 78.1933 177.067C75.1225 171.863 73.5997 166.151 73.5997 159.931C73.5997 155.412 74.488 151.071 76.2391 146.959C77.9903 142.846 80.4775 139.165 83.7006 135.967C86.9238 132.768 90.7307 130.255 95.1213 128.402C99.5119 126.549 104.359 125.635 109.664 125.635C116.719 125.635 122.962 127.183 128.393 130.306C133.799 133.428 138.038 137.566 141.083 142.77C144.129 147.974 145.651 153.686 145.651 159.906C145.651 164.425 144.788 168.766 143.063 172.878C141.337 176.991 138.85 180.646 135.626 183.819C132.403 186.993 128.596 189.506 124.206 191.384C119.815 193.238 114.968 194.177 109.689 194.177L109.638 194.202ZM109.638 176.305C112.608 176.305 115.272 175.645 117.633 174.3C119.993 172.98 121.871 171.076 123.216 168.613C124.561 166.151 125.246 163.257 125.246 159.931C125.246 156.606 124.587 153.686 123.241 151.249C121.896 148.812 120.069 146.908 117.683 145.563C115.323 144.243 112.633 143.557 109.638 143.557C106.643 143.557 103.953 144.217 101.568 145.563C99.2073 146.883 97.3293 148.787 95.9842 151.249C94.6391 153.712 93.9538 156.606 93.9538 159.931C93.9538 163.257 94.6391 166.176 96.0095 168.613C97.38 171.076 99.2581 172.954 101.618 174.3C103.979 175.645 106.643 176.305 109.613 176.305H109.638Z" fill="#0C2340"></path>
<path d="M188.694 194.202C181.639 194.202 175.396 192.654 169.965 189.531C164.559 186.409 160.32 182.271 157.25 177.067C154.179 171.863 152.656 166.151 152.656 159.931C152.656 155.412 153.544 151.071 155.295 146.959C157.047 142.846 159.534 139.165 162.757 135.967C165.98 132.768 169.787 130.255 174.178 128.402C178.568 126.549 183.416 125.635 188.72 125.635C195.775 125.635 202.018 127.183 207.45 130.306C212.855 133.428 217.094 137.566 220.139 142.77C223.185 147.974 224.708 153.686 224.708 159.906C224.708 164.425 223.845 168.766 222.119 172.878C220.393 176.991 217.906 180.646 214.683 183.819C211.46 186.993 207.653 189.506 203.262 191.384C198.871 193.238 194.024 194.177 188.745 194.177L188.694 194.202ZM188.694 176.305C191.664 176.305 194.329 175.645 196.689 174.3C199.049 172.98 200.927 171.076 202.272 168.613C203.617 166.151 204.303 163.257 204.303 159.931C204.303 156.606 203.643 153.686 202.298 151.249C200.953 148.812 199.125 146.908 196.74 145.563C194.379 144.243 191.689 143.557 188.694 143.557C185.7 143.557 183.009 144.217 180.624 145.563C178.264 146.883 176.386 148.787 175.04 151.249C173.695 153.712 173.01 156.606 173.01 159.931C173.01 163.257 173.695 166.176 175.066 168.613C176.436 171.076 178.314 172.954 180.675 174.3C183.035 175.645 185.7 176.305 188.669 176.305H188.694Z" fill="#0C2340"></path>
<path d="M236.839 192.298V127.564H257.65V135.129C259.604 131.778 262.167 129.366 265.39 127.818C268.614 126.269 272.091 125.533 275.847 125.533C277.293 125.533 278.588 125.609 279.704 125.787C280.846 125.965 281.963 126.142 283.08 126.371L280.593 147.822C279.146 147.264 277.623 146.857 276.024 146.553C274.425 146.248 272.801 146.096 271.202 146.096C267.268 146.096 264.02 147.213 261.457 149.472C258.893 151.706 257.624 155.006 257.624 159.373V192.324H236.813L236.839 192.298Z" fill="#0C2340"></path>
<path d="M40.4798 318.594C33.7544 318.594 27.2065 317.604 20.8363 315.624C14.4662 313.644 9.08576 310.75 4.69516 306.992L14.6438 291.253C16.4965 293.233 18.8821 294.96 21.75 296.381C24.6178 297.828 27.7141 298.92 30.988 299.707C34.2619 300.494 37.4597 300.874 40.5306 300.874C44.8451 300.874 48.3728 300.138 51.1137 298.691C53.8547 297.219 55.2252 295.112 55.2252 292.319C55.2252 290.035 54.2354 288.131 52.2558 286.582C50.2762 285.034 46.5962 283.536 41.2666 282.038L33.6528 279.931C24.4656 277.392 17.8923 273.915 13.8824 269.523C9.87252 265.131 7.89294 259.825 7.89294 253.606C7.89294 249.62 8.73045 245.965 10.4055 242.588C12.0805 239.212 14.4408 236.293 17.5117 233.83C20.5825 231.368 24.161 229.438 28.2978 228.093C32.4093 226.747 36.9268 226.062 41.7742 226.062C48.4997 226.062 54.743 227.027 60.5294 228.981C66.2905 230.936 70.9349 233.602 74.4626 236.978L64.184 252.21C62.5851 250.509 60.5802 249.036 58.2199 247.767C55.8596 246.498 53.271 245.508 50.4793 244.771C47.6875 244.061 44.8704 243.705 42.0534 243.705C39.2363 243.705 36.8252 244.086 34.7441 244.822C32.663 245.558 31.0642 246.599 29.8967 247.894C28.7293 249.214 28.1455 250.788 28.1455 252.666C28.1455 254.113 28.577 255.332 29.4399 256.322C30.3028 257.312 31.7748 258.251 33.8051 259.14C35.8608 260.028 38.6272 260.993 42.1549 262.059L49.8955 264.344C58.9813 267.01 65.5545 270.361 69.6152 274.371C73.6758 278.382 75.7062 283.612 75.7062 290.035C75.7062 295.67 74.2596 300.621 71.3917 304.911C68.5239 309.201 64.4378 312.552 59.1843 314.964C53.9308 317.375 47.6622 318.568 40.4291 318.568L40.4798 318.594Z" fill="#0C2340"></path>
<path d="M90.5276 316.69V227.839H111.592V297.447H147.25V316.69H90.5276Z" fill="#0C2340"></path>
<path d="M161.716 316.69V227.839H182.781V316.69H161.716Z" fill="#0C2340"></path>
<path d="M203.719 316.69V227.839H223.972L257.726 283.891L249.351 283.942L281.455 227.839H301.632V316.69H281.202L281.582 254.748L285.338 256.144L259.705 299.986H245.696L219.048 256.144L222.677 254.748L223.058 316.69H203.77H203.719Z" fill="#0C2340"></path>
<path d="M326.402 319C335.569 319 343 311.567 343 302.397C343 293.228 335.569 285.795 326.402 285.795C317.235 285.795 309.804 293.228 309.804 302.397C309.804 311.567 317.235 319 326.402 319Z" fill="white"></path>
</g>
<defs>
<clipPath id="clip0_23_141">
<rect width="343" height="319" fill="white"></rect>
</clipPath>
</defs>
</svg>