<?xml version="1.0"?>

<svg version="1.1" id="Laag_1" xmlns="http://www.w3.org/2000/svg" xmlns:xlink="http://www.w3.org/1999/xlink" x="0px" y="0px" viewBox="0 0 1143.2 246.8" style="enable-background:new 0 0 1143.2 246.8;" xml:space="preserve">

<g>
&#x9;<g>
&#x9;&#x9;<g>
&#x9;&#x9;&#x9;<path class="st0" d="M506.5,0.5c-13.9,0.2-27,5.6-36.8,15.5l-27.1,26.8c-5,5-11.4,7.9-18,8.1c-0.3,0-0.6,0-1,0c-0.3,0-0.6,0-1,0&#xA;&#x9;&#x9;&#x9;&#x9;c-6.6-0.2-13-3.1-18-8.1l-27-26.8c-9.9-9.9-23-15.3-36.8-15.5L290.3,0v111.2h64V83.1l5.1,5.1c16.6,16.5,38.3,26,61.2,26.7&#xA;&#x9;&#x9;&#x9;&#x9;c1,0,2,0,3.1,0c1,0,2,0,3,0c22.9-0.7,44.5-10.1,61.2-26.7l5.1-5.1v28.1h64V0L506.5,0.5z"></path>
&#x9;&#x9;&#x9;<path class="st0" d="M469.7,136.3l-27.1,26.9c-5,5-11.4,7.9-18,8.1c-0.3,0-0.7,0-1,0c-0.3,0-0.7,0-1,0c-6.6-0.2-13-3.1-18-8.1&#xA;&#x9;&#x9;&#x9;&#x9;l-27-26.9c-9.9-9.9-23-15.3-36.8-15.5l-50.4-0.5v127.3h64v-44.1l5.1,5.1c16.6,16.5,38.3,26,61.2,26.7c1,0,2,0,3,0s2,0,3,0&#xA;&#x9;&#x9;&#x9;&#x9;c22.9-0.7,44.5-10.1,61.2-26.7l5.1-5.1v44.1h64V120.4l-50.4,0.5C492.6,121.1,479.5,126.5,469.7,136.3z"></path>
&#x9;&#x9;&#x9;<path class="st0" d="M216.8,120.1c-26.8,0.3-43.8,19.1-53,29.2c-8.3,9.2-15.4,16.5-22.1,23.2c-14.6,14.5-36.2,12.2-51,3.6&#xA;&#x9;&#x9;&#x9;&#x9;c-19.7-11.4-29.5-32.9-25.9-57.3c0.7-4.6,1.8-9.1,3.3-13.2c9.4-25.4,33.5-41.8,61.3-41.8h140v-64h-140c-26.5,0-52,7.8-73.6,22.6&#xA;&#x9;&#x9;&#x9;&#x9;c-22,15-38.5,36.2-47.8,61.1c-3.1,8.4-5.3,17.2-6.6,26.3c-7.3,50.4,14.7,97.1,57.2,121.8c19.9,11.5,42.9,16.9,65.1,15.3&#xA;&#x9;&#x9;&#x9;&#x9;C148,245,169.9,235,187,218c6.3-6.2,12.6-12.9,19.8-20.7v50.3h64V120.6l-53.6-0.5L216.8,120.1z"></path>
&#x9;&#x9;</g>
&#x9;&#x9;<g>
&#x9;&#x9;&#x9;<path class="st0" d="M742.3,112.1h-20.9v-10.2c-10.7,7.8-23.4,11.6-38.1,11.6c-11.5,0-21.9-2.5-31.1-7.4&#xA;&#x9;&#x9;&#x9;&#x9;c-9.3-4.9-16.4-11.7-21.8-20.6c-5.2-8.8-7.9-18.6-7.9-29.6c0-10.9,2.7-20.9,7.9-29.6c5.2-8.8,12.5-15.7,21.8-20.6&#xA;&#x9;&#x9;&#x9;&#x9;c9.3-4.9,19.6-7.5,31.1-7.5c9.7,0,18.5,1.7,26.6,5.1s14.9,8.3,20.4,14.5c5.5,6.3,9.5,13.5,11.8,21.7h-22.4&#xA;&#x9;&#x9;&#x9;&#x9;c-3.1-6.7-7.8-12-14.2-15.9s-13.8-5.7-22.2-5.7c-7.8,0-14.7,1.7-20.7,4.9c-6,3.3-10.7,7.9-14,13.7c-3.3,5.8-5,12.2-5,19.4&#xA;&#x9;&#x9;&#x9;&#x9;c0,7.2,1.7,13.8,5,19.5c3.3,5.8,8.1,10.3,14.1,13.6c6,3.3,12.9,4.9,20.5,4.9c9.8,0,17.9-2.5,24.5-7.3&#xA;&#x9;&#x9;&#x9;&#x9;c6.6-4.8,11.1-11.8,13.6-20.8h-19.7V45.9h40.6L742.3,112.1L742.3,112.1z"></path>
&#x9;&#x9;&#x9;<path class="st0" d="M822.2,107.5c-6.8-3.8-12-9.1-15.8-15.7c-3.7-6.6-5.5-14-5.5-22.2c0-8.1,1.9-15.5,5.5-22.2&#xA;&#x9;&#x9;&#x9;&#x9;c3.7-6.7,9-12,15.8-16s14.6-5.9,23.3-5.9c8.9,0,16.6,2,23.4,5.9s12.1,9.3,15.9,15.9c3.7,6.7,5.6,14.1,5.6,22.3&#xA;&#x9;&#x9;&#x9;&#x9;c0,8.2-1.9,15.6-5.6,22.2c-3.7,6.6-9.1,11.8-15.9,15.7s-14.7,5.7-23.4,5.7C836.8,113.2,829.1,111.2,822.2,107.5z M863.5,87.1&#xA;&#x9;&#x9;&#x9;&#x9;c4.5-4.7,6.8-10.5,6.8-17.4c0-4.5-1-8.8-3.1-12.6c-2.1-3.8-4.9-6.9-8.7-9.1c-3.7-2.3-8.1-3.3-13-3.3c-4.6,0-8.9,1.1-12.5,3.3&#xA;&#x9;&#x9;&#x9;&#x9;c-3.7,2.3-6.6,5.2-8.7,9.1c-2.1,3.8-3.1,8-3.1,12.6c0,6.9,2.3,12.7,6.7,17.4c4.4,4.7,10.3,7.1,17.5,7.1&#xA;&#x9;&#x9;&#x9;&#x9;C852.9,94.1,858.9,91.7,863.5,87.1z"></path>
&#x9;&#x9;&#x9;<path class="st0" d="M972.2,31.4c6.8,3.9,12.1,9.3,15.9,15.9c3.7,6.7,5.6,14.1,5.6,22.3c0,8.2-1.9,15.6-5.6,22.2&#xA;&#x9;&#x9;&#x9;&#x9;c-3.7,6.6-9.1,11.8-15.9,15.7c-6.8,3.8-14.7,5.7-23.4,5.7c-8.9,0-16.8-2.1-23.9-6.2v5.1H904V-0.5h20.8v32.2&#xA;&#x9;&#x9;&#x9;&#x9;c7.4-4.1,15.4-6.2,23.9-6.2C957.6,25.5,965.4,27.5,972.2,31.4z M966.7,87.1c4.5-4.7,6.8-10.5,6.8-17.4c0-4.5-1-8.8-3.1-12.6&#xA;&#x9;&#x9;&#x9;&#x9;c-2.1-3.8-4.9-6.9-8.7-9.1c-3.7-2.3-8.1-3.3-13-3.3c-6.3,0-11.6,2-16.1,5.8c-4.3,3.8-7,8.8-7.9,14.8v8.6&#xA;&#x9;&#x9;&#x9;&#x9;c0.9,5.9,3.4,10.7,7.8,14.6c4.3,3.8,9.7,5.7,16.1,5.7C956.2,94.1,962.2,91.7,966.7,87.1z"></path>
&#x9;&#x9;&#x9;<polygon class="st0" points="787.1,94.1 782.3,94.1 780.5,94.1 780.5,-0.6 759.7,-0.6 759.7,86.1 759.7,98.4 759.7,113.5 &#xA;&#x9;&#x9;&#x9;&#x9;798.5,113.5 798.5,109.4 798.5,94.1 &#x9;&#x9;&#x9;"></polygon>
&#x9;&#x9;&#x9;<g>
&#x9;&#x9;&#x9;&#x9;<path class="st1" d="M1045.5,78.9l18.6-2.7l0,0L1045.5,78.9c-6.5,1.2-11.6,2.6-15.3,4.2c-1.2,0.5-2.2,1.1-3,1.7&#xA;&#x9;&#x9;&#x9;&#x9;&#x9;c0.8-0.6,1.8-1.2,3-1.7C1033.9,81.5,1039,80.1,1045.5,78.9z"></path>
&#x9;&#x9;&#x9;&#x9;<path class="st1" d="M1032.9,94.2c1.6,0.2,3.3,0.4,5.3,0.4c3.4,0,6.8-0.4,10.1-1c-3.3,0.7-6.7,1-10.1,1&#xA;&#x9;&#x9;&#x9;&#x9;&#x9;C1036.2,94.6,1034.5,94.5,1032.9,94.2z"></path>
&#x9;&#x9;&#x9;&#x9;<path class="st1" d="M1026.8,92.1c0.5,0.3,1,0.6,1.7,0.9c1.2,0.5,2.6,0.9,4.1,1.1c-1.6-0.3-3-0.6-4.1-1.1&#xA;&#x9;&#x9;&#x9;&#x9;&#x9;C1027.8,92.7,1027.2,92.4,1026.8,92.1z"></path>
&#x9;&#x9;&#x9;&#x9;<path class="st1" d="M1053.5,92.2c-0.1,0-0.3,0.1-0.4,0.1C1053.3,92.3,1053.4,92.3,1053.5,92.2z"></path>
&#x9;&#x9;&#x9;&#x9;<path class="st0" d="M1091.7,94.1h-7c0.1,0.3,0.1,0.6,0.3,0.8c-0.1-0.2-0.2-0.5-0.3-0.8c-0.1-0.3-0.1-0.7-0.1-1.1V55.8&#xA;&#x9;&#x9;&#x9;&#x9;&#x9;c0-9.8-3.7-17.2-11.1-22.7s-17-8.1-28.9-8.1c-9.9,0-18.1,2.4-24.9,7c-6.8,4.6-12.4,11.8-16.9,21.6l19.4,8.1&#xA;&#x9;&#x9;&#x9;&#x9;&#x9;c3-6.1,6.3-10.5,9.9-13.4c3.5-2.9,7.8-4.2,12.5-4.2c5.5,0,10.1,1.1,13.9,3.2c3.7,2.2,5.5,5,5.5,8.6v1.1l-23.9,3.4&#xA;&#x9;&#x9;&#x9;&#x9;&#x9;c-12.8,2-22.1,5.2-27.7,9.7c-5.6,4.5-8.5,10.7-8.5,18.8c0,7.9,3,13.9,8.8,18.1c5.9,4.2,14.1,6.4,24.7,6.4&#xA;&#x9;&#x9;&#x9;&#x9;&#x9;c4.6,0,9.8-0.6,15.3-1.8c5.5-1.2,10.5-3,15.1-5.3c1.1,1.5,2.3,2.8,3.7,3.7c2.4,1.7,5.3,2.7,8.8,3.1h0.3c4.4,0,9.9-1.3,16.3-3.8&#xA;&#x9;&#x9;&#x9;&#x9;&#x9;V94.1H1091.7z M1064.1,82.6c0,3.9-2.9,6.9-8.5,9c-0.7,0.3-1.4,0.5-2.2,0.7c-0.1,0-0.3,0.1-0.4,0.1c-1.6,0.5-3.2,0.9-4.7,1.2&#xA;&#x9;&#x9;&#x9;&#x9;&#x9;c-3.3,0.7-6.7,1-10.1,1c-2,0-3.7-0.1-5.3-0.4c-0.1,0-0.3,0-0.4-0.1c-1.6-0.3-3-0.6-4.1-1.1c-0.7-0.3-1.2-0.6-1.7-0.9&#xA;&#x9;&#x9;&#x9;&#x9;&#x9;c-1.3-0.9-2-2-2-3.3c0-1.5,0.9-2.9,2.6-4c0.8-0.6,1.8-1.2,3-1.7c3.6-1.7,8.8-3.1,15.3-4.2l18.6-2.7l0,0l0,0V82.6z"></path>
&#x9;&#x9;&#x9;&#x9;<path class="st0" d="M1053.1,92.4c-1.6,0.5-3.2,0.9-4.7,1.2C1049.9,93.2,1051.5,92.8,1053.1,92.4z"></path>
&#x9;&#x9;&#x9;&#x9;<path class="st0" d="M1032.9,94.2c-0.1,0-0.3,0-0.4-0.1C1032.6,94.2,1032.8,94.2,1032.9,94.2z"></path>
&#x9;&#x9;&#x9;&#x9;<path class="st0" d="M1024.8,88.8c0-1.5,0.9-2.9,2.6-4C1025.6,86,1024.8,87.4,1024.8,88.8c0,1.3,0.7,2.4,2,3.3&#xA;&#x9;&#x9;&#x9;&#x9;&#x9;C1025.4,91.2,1024.8,90.1,1024.8,88.8z"></path>
&#x9;&#x9;&#x9;&#x9;<path class="st0" d="M1064.1,82.6c0,3.9-2.9,6.9-8.5,9c-0.7,0.3-1.4,0.5-2.2,0.7c0.7-0.2,1.4-0.5,2.2-0.7&#xA;&#x9;&#x9;&#x9;&#x9;&#x9;C1061.3,89.5,1064.1,86.6,1064.1,82.6v-6.4l0,0V82.6z"></path>
&#x9;&#x9;&#x9;</g>
&#x9;&#x9;&#x9;<polygon class="st0" points="1132,94.1 1127.2,94.1 1125.3,94.1 1125.3,-0.6 1104.6,-0.6 1104.6,86.1 1104.6,98.4 1104.6,113.5 &#xA;&#x9;&#x9;&#x9;&#x9;1143.2,113.5 1143.2,109.4 1143.2,94.1 &#x9;&#x9;&#x9;"></polygon>
&#x9;&#x9;</g>
&#x9;&#x9;<g>
&#x9;&#x9;&#x9;<path class="st0" d="M644.1,188.6l0.2,58.2h-21.8V131.7h19.3l36.5,80.8l36.6-80.8h19v115.1h-21.4l0.2-58.4l-26.5,58.4h-16.2&#xA;&#x9;&#x9;&#x9;&#x9;L644.1,188.6z"></path>
&#x9;&#x9;&#x9;<path class="st0" d="M816.8,246.8h-21.1l-0.7-89h20.9l0.3,7.5c7.7-4.6,16.1-7,25.1-7s17,2,24,6c7,4,12.3,9.5,16.2,16.3&#xA;&#x9;&#x9;&#x9;&#x9;c3.7,6.8,5.7,14.4,5.7,22.8v43.4h-20.6v-43.4c0-4.6-1.1-9-3.2-12.8c-2.1-3.9-5-7-8.9-9.3c-3.8-2.3-8.3-3.4-13.2-3.4&#xA;&#x9;&#x9;&#x9;&#x9;c-6.1,0-11.4,2.3-15.9,6.7s-7.4,9.9-8.8,16.2L816.8,246.8L816.8,246.8z"></path>
&#x9;&#x9;&#x9;<path class="st0" d="M970.3,164.7v-33h21.2v115.1h-21.2v-5.2c-7,4.2-15.1,6.3-24.2,6.3c-9.2,0-17.2-2-24.2-5.9&#xA;&#x9;&#x9;&#x9;&#x9;c-7-3.9-12.4-9.3-16.3-16.1c-3.8-6.8-5.8-14.3-5.8-22.7s2-16,5.8-22.8c3.8-6.8,9.3-12.2,16.3-16.3c7-4,15.1-6,24.1-6&#xA;&#x9;&#x9;&#x9;&#x9;C954.9,158.4,963,160.5,970.3,164.7z M962.4,222.6c4.4-3.9,7.1-8.9,8-14.9V199c-0.9-6.1-3.5-11.2-8.1-15.2&#xA;&#x9;&#x9;&#x9;&#x9;c-4.4-3.9-9.9-5.9-16.3-5.9c-5.1,0-9.6,1.2-13.4,3.4c-3.8,2.3-6.8,5.4-8.9,9.3c-2.1,3.9-3.2,8.2-3.2,12.8c0,7.1,2.4,13,7,17.8&#xA;&#x9;&#x9;&#x9;&#x9;c4.6,4.8,10.8,7.2,18.5,7.2C952.5,228.5,957.9,226.6,962.4,222.6z"></path>
&#x9;&#x9;&#x9;<polygon class="st0" points="754.1,157.9 747.5,157.9 747.5,177.9 754.1,177.9 754.1,246.8 775.1,246.8 775.1,177.9 775.1,157.9 &#xA;&#x9;&#x9;&#x9;&#x9;&#x9;&#x9;&#x9;"></polygon>
&#x9;&#x9;</g>
&#x9;</g>
</g>
</svg>