<svg xmlns="http://www.w3.org/2000/svg" id="Laag_2" data-name="Laag 2" viewBox="0 0 708.66 239.01"><defs></defs><g id="logo"><g><path class="cls-2" d="m340.29,138.83c-5.11-4.18-13.78-7.51-26.02-9.98-6.06-1.29-10.11-2.44-12.13-3.45-2.02-1.01-3.03-2.55-3.03-4.63s1.17-3.61,3.5-4.76c2.33-1.15,5.38-1.73,9.14-1.73,3.03,0,6.15.37,9.35,1.1s6.3,1.77,9.31,3.11c3,1.35,5.66,2.89,7.96,4.63l8.34-18.95c-4.44-3.31-9.76-5.9-15.96-7.75-6.2-1.85-12.79-2.78-19.75-2.78s-13.43,1.17-18.91,3.5c-5.47,2.33-9.76,5.6-12.84,9.81-3.09,4.21-4.63,9.12-4.63,14.74,0,7.86,2.68,14.05,8.04,18.57,5.36,4.52,13.83,7.76,25.39,9.73,6.12,1.12,10.23,2.16,12.34,3.12,2.11.96,3.16,2.44,3.16,4.46,0,2.3-1.15,4.06-3.45,5.26-2.3,1.21-5.64,1.81-10.02,1.81-4.77,0-9.83-.86-15.16-2.57-5.33-1.71-10.33-4.06-14.99-7.03l-8.59,18.95c4.77,3.59,10.46,6.37,17.05,8.34,6.6,1.97,13.88,2.95,21.85,2.95,7.52,0,14.11-1.19,19.75-3.58,5.64-2.39,10.05-5.74,13.22-10.06,3.17-4.32,4.76-9.41,4.76-15.25,0-7.52-2.56-13.38-7.66-17.56Z"></path><polygon class="cls-2" points="451.46 97.02 419.46 97.02 393.6 125.48 393.6 61.64 365.98 61.64 365.98 182.92 393.6 182.92 393.6 157.99 401.35 149.74 421.48 182.92 454.16 182.92 421.4 131.71 451.46 97.02"></polygon><path class="cls-2" d="m481.36,53.56c-4.44,0-8.3,1.38-11.58,4.13-3.28,2.75-4.93,6.49-4.93,11.2s1.64,8.46,4.93,11.24c3.28,2.78,7.14,4.17,11.58,4.17s8.37-1.39,11.62-4.17c3.26-2.78,4.88-6.53,4.88-11.24s-1.63-8.45-4.88-11.2c-3.26-2.75-7.13-4.13-11.62-4.13Z"></path><rect class="cls-2" x="467.55" y="97.02" width="27.62" height="85.9"></rect><rect class="cls-2" x="518.16" y="61.64" width="27.62" height="121.28"></rect><rect class="cls-2" x="568.78" y="61.64" width="27.62" height="121.28"></rect><path class="cls-2" d="m681.04,61.64v41.62c-2.33-1.96-4.82-3.59-7.5-4.9-5.28-2.58-11.2-3.87-17.77-3.87s-12.07,1.15-17.35,3.45c-5.28,2.3-9.84,5.52-13.69,9.64-3.85,4.13-6.84,8.94-8.97,14.44-2.13,5.5-3.2,11.48-3.2,17.94,0,9.1,1.85,17.05,5.56,23.88,3.71,6.82,8.79,12.13,15.24,15.92,6.46,3.79,13.76,5.69,21.9,5.69s15.19-1.73,20.97-5.18c3.49-2.08,6.31-4.59,8.59-7.42v10.08h23.83V61.64h-27.62Zm-2.61,89.86c-1.8,3.26-4.27,5.77-7.41,7.54-3.15,1.77-6.68,2.65-10.61,2.65s-7.47-.89-10.61-2.65c-3.15-1.77-5.63-4.28-7.45-7.54-1.82-3.25-2.74-7.1-2.74-11.54s.9-8.35,2.7-11.58c1.8-3.23,4.27-5.73,7.41-7.5,3.14-1.77,6.71-2.65,10.7-2.65s7.55.89,10.7,2.65c3.14,1.77,5.6,4.27,7.37,7.5s2.65,7.09,2.65,11.58-.9,8.28-2.69,11.54Z"></path><rect class="cls-3" x="0" y="70.75" width="65" height="65" rx="32.5" ry="32.5"></rect><circle class="cls-1" cx="102.37" cy="174.01" r="32.5"></circle><path class="cls-4" d="m172.24,70.75c-17.95,0-32.5,14.55-32.5,32.5v103.25c0,17.95,14.55,32.5,32.5,32.5s32.5-14.55,32.5-32.5v-103.25c0-17.95-14.55-32.5-32.5-32.5Z"></path><path class="cls-5" d="m134.87,32.5C134.87,14.55,120.32,0,102.37,0s-32.5,14.55-32.5,32.5c0,.06,0,.11,0,.17h0v70.58c0,17.95,14.55,32.5,32.5,32.5s32.5-14.55,32.5-32.5V32.67h0c0-.06,0-.11,0-.17Z"></path><circle class="cls-2" cx="102.37" cy="32.5" r="32.5"></circle></g></g></svg>